<?xml version="1.0" encoding="UTF-8"?>
<svg version="1.1" viewBox="0 0 1600 1600" width="1280" height="1280" xmlns="http://www.w3.org/2000/svg">
<path transform="translate(1313,422)" d="m0 0c0.66 0.33 1.32 0.66 2 1 0.719 0.24 1.44 0.48 2.18 0.727 13.3 4.44 22.9 11.6 32.8 21.3 0.804 0.708 1.61 1.42 2.44 2.14 14 12.7 21.3 33 22.2 51.6 0.0907 3.5 0.118 6.99 0.0974 10.5-0.0217 3.9 0.0244 7.81 0.0658 11.7 0.0214 2.04 0.0399 4.07 0.0553 6.11 0.0863 10 0.548 20 1.05 30.1 0.669 13.7 1.2 27.4 1.6 41.1 0.0221 0.748 0.0442 1.5 0.0669 2.27 0.22 7.51 0.433 15 0.637 22.5 0.0773 2.82 0.157 5.64 0.236 8.47 0.0534 1.93 0.103 3.85 0.153 5.78 0.17 6.06 0.436 12.1 0.865 18.2 0.509 7.25 0.766 14.5 0.948 21.8 0.0562 2.24 0.116 4.48 0.177 6.72 0.151 5.55 0.295 11.1 0.439 16.7 0.123 4.72 0.248 9.44 0.377 14.2 0.0585 2.18 0.113 4.36 0.168 6.54 0.194 7.32 0.568 14.6 1.17 21.9 0.29 3.79 0.396 7.57 0.422 11.4 0.0105 1.1 0.0105 1.1 0.0213 2.22 0.0172 2.32 0.0238 4.64 0.0256 6.96 0.00101 1.19 0.00101 1.19 0.00204 2.41-0.047 34.9-11.4 63.6-35.1 89.2-3.54 3.82-6.72 7.75-9.81 11.9-11 14.8-25.1 26.5-40.3 36.8-0.864 0.611-1.73 1.22-2.62 1.85-33.3 22.7-77.2 26.4-116 20.5-3.48-0.514-6.97-0.942-10.5-1.36-0.247 0.681-0.495 1.36-0.75 2.06-3.15 7.4-7.35 12.5-12.8 18.3-1.9 2.05-3.68 4.11-5.41 6.29-0.99 1.14-0.99 1.14-2 2.31h-2c-0.33 0.99-0.66 1.98-1 3h-2c-0.237 0.562-0.474 1.12-0.719 1.7-1.57 2.82-3.5 4.77-5.78 7.06-0.887 0.889-1.77 1.78-2.69 2.7-1.39 1.38-1.39 1.38-2.81 2.79-0.928 0.936-1.86 1.87-2.81 2.84-0.887 0.884-1.77 1.77-2.69 2.68-0.815 0.812-1.63 1.62-2.47 2.46-2.03 1.77-2.03 1.77-4.03 1.77-0.33 0.99-0.66 1.98-1 3-1.64 1.37-3.31 2.69-5 4-0.866 0.887-1.73 1.77-2.62 2.69-2.38 2.31-2.38 2.31-5.38 3.31-0.33 0.99-0.66 1.98-1 3-1.63 1.5-3.33 2.93-5.06 4.31-0.994 0.795-1.99 1.59-3.01 2.41-2.41 1.88-4.84 3.72-7.3 5.53-2.29 1.69-4.16 3.28-6.19 5.31-2.95 2.95-5.96 5.14-9.44 7.44h-2v2c-1.93 1.4-3.92 2.72-5.94 4-4.2 2.38-4.2 2.38-7.06 6-3.36 2.05-6.27 3.76-10 5v2c-0.557 0.291-1.11 0.583-1.69 0.883-4.9 2.63-9.28 5.46-13.6 8.98-1.73 1.14-1.73 1.14-4.73 1.14v2c-1.46 0.838-2.91 1.67-4.38 2.5-0.812 0.464-1.62 0.928-2.46 1.41-2.16 1.09-2.16 1.09-4.16 1.09v2c-0.842 0.409-1.68 0.817-2.55 1.24-4.27 2.18-8.38 4.6-12.5 7.06-4.62 2.7-4.62 2.7-7.95 2.7v2c-2.31 0.66-4.62 1.32-7 2v2c-1.98 0.33-3.96 0.66-6 1v2c-1.77 0.84-3.54 1.67-5.31 2.5-0.986 0.464-1.97 0.928-2.99 1.41-2.7 1.09-2.7 1.09-5.7 1.09v2c-0.822 0.303-1.64 0.606-2.49 0.918-1.12 0.419-2.23 0.838-3.38 1.27-1.09 0.406-2.18 0.812-3.3 1.23-2.95 1.16-5.74 2.53-8.55 3.98-5.41 2.75-11 4.95-16.6 7.11-2.05 0.788-4.09 1.58-6.14 2.37-0.961 0.371-1.92 0.742-2.91 1.12-2.93 1.15-5.82 2.38-8.7 3.63-13.5 5.69-27.7 9.77-41.9 13.3-2.35 0.594-4.59 1.24-6.89 2.02-4.41 1.45-8.9 2.46-13.4 3.52-0.899 0.213-1.8 0.425-2.72 0.645-5.64 1.33-11.3 2.61-17 3.86-1.12 0.246-2.23 0.492-3.38 0.746-20.8 4.51-41.5 8.06-62.8 9.61-0.967 0.0715-1.93 0.143-2.93 0.217-1.29 0.0892-1.29 0.0892-2.6 0.18-2.2 0.235-4.2 0.702-6.34 1.25-15.3 1.27-30.8 1.11-46.1 1.12-0.97 0.00259-1.94 0.00518-2.94 0.00784-10.4 0.0219-20.8-0.0919-31.3-0.578-0.834-0.0387-1.67-0.0775-2.53-0.117-7.05-0.365-14-1.12-21-1.97-3.69-0.441-7.38-0.726-11.1-0.969-4.53-0.322-8.8-0.997-13.2-1.97-3.42-0.658-6.87-1.07-10.3-1.47-11.7-1.4-23.3-3.38-34.8-6.37-7.89-2.05-15.8-3.81-23.8-5.59-1.08-0.244-2.15-0.488-3.26-0.739-0.961-0.215-1.92-0.431-2.91-0.653-2.68-0.71-5.14-1.66-7.7-2.71-1.36-0.419-2.73-0.814-4.11-1.18-0.755-0.206-1.51-0.411-2.29-0.623-0.776-0.208-1.55-0.416-2.35-0.631-10.2-2.75-20.1-6.2-30-9.94-1.06-0.398-2.12-0.797-3.21-1.21-6.5-2.45-13-4.92-19.5-7.42-3.52-1.36-7.05-2.68-10.6-4v-2c-1.23-0.131-1.23-0.131-2.49-0.266-4.28-0.896-7.79-2.56-11.7-4.48-1.5-0.725-3-1.45-4.51-2.17-0.73-0.354-1.46-0.708-2.21-1.07-4.33-2.08-8.71-4.04-13.1-6.01 0.277 1.1 0.554 2.19 0.84 3.32 0.366 1.45 0.732 2.91 1.1 4.36 0.182 0.721 0.365 1.44 0.553 2.19 0.512 2.04 1.01 4.08 1.51 6.13 0.202 0.793 0.405 1.59 0.613 2.4 3.17 21.3-1.24 44.6-14 62.1-5.91 7.33-12.4 14.8-20.6 19.5-2.69 0.125-2.69 0.125-5-1-3.71-4.14-6.37-8.83-9.12-13.6-0.877-1.51-1.75-3.03-2.63-4.54-0.383-0.665-0.766-1.33-1.16-2.01-0.974-1.64-2.02-3.23-3.08-4.82v-3c-0.99-0.33-1.98-0.66-3-1-1.82-2.84-1.82-2.84-3.69-6.38l-1.89-3.52c-1.43-3.1-1.43-3.1-1.43-6.1-0.99-0.33-1.98-0.66-3-1-1.36-2.12-1.36-2.12-2.75-4.88-2.04-3.91-4.17-7.67-6.56-11.4-3.99-6.17-7.74-12.5-11.5-18.8-2.01-3.37-4.04-6.74-6.06-10.1-0.727-1.21-1.45-2.42-2.18-3.63-1.21-2.01-2.44-4.01-3.7-5.98-1.24-2.26-1.24-2.26-1.24-5.26h-2l-1.69-3.04c-4.27-7.66-8.64-15.2-13.3-22.7-2.65-4.27-5.23-8.57-7.8-12.9-1.69-2.84-3.4-5.66-5.14-8.47-0.548-0.886-1.1-1.77-1.66-2.68-0.476-0.758-0.951-1.52-1.44-2.3-0.996-1.95-0.996-1.95-0.996-4.95h-2c-0.34-0.643-0.681-1.29-1.03-1.95-3.38-6.3-6.99-12.4-10.8-18.5-2.44-3.95-4.79-7.95-7.14-12-3.16-5.39-6.34-10.8-9.56-16.1-3.17-5.27-6.32-10.6-9.44-15.9-0.416-0.708-0.833-1.42-1.26-2.15-2.11-3.59-4.21-7.18-6.3-10.8-4.07-6.97-8.19-13.9-12.5-20.7-4.74-7.53-9.26-15.2-13.7-22.9-1.26-2.15-2.54-4.29-3.83-6.43-18.8-31.4-28.6-62.9-20.4-99.7 3.41-13.1 8.5-25.2 15-37 0.48-0.896 0.959-1.79 1.45-2.71 4.02-7.12 9.16-13.4 14.3-19.7 1.13-1.4 2.24-2.83 3.34-4.25 2.93-3.54 6.41-6.34 9.91-9.3 1.39-1.24 1.39-1.24 2.81-2.5 11.2-9.23 25.3-16.8 38.2-23.5l1.91-1.01c11.4-5.55 24.1-8.08 36.6-9.8 1.34-0.186 1.34-0.186 2.71-0.375 30-3.79 64.4 3.89 88.5 22.5 11.8 9.54 22.8 19.9 31.2 32.6 0.455 0.672 0.91 1.34 1.38 2.04 2.36 3.74 3.4 6.57 2.62 11-3.06 3.66-6.86 5.89-10.9 8.25-1.35 0.794-2.7 1.59-4.05 2.38-0.675 0.396-1.35 0.792-2.04 1.2-2.91 1.72-5.78 3.51-8.66 5.29-5.15 3.18-10.4 6.25-15.6 9.28-2.35 1.38-4.66 2.81-6.96 4.28-12 7.53-12 7.53-17.8 6.31-4.93-3.15-7.81-7.17-11-12-8.42-10.3-21-15.8-34-18-16.4-0.924-30.4 3.08-43.3 13.5-4.98 4.55-8.58 9.57-11.7 15.5-0.351 0.628-0.701 1.26-1.06 1.9-6.45 12-7.05 27.8-3.5 40.8 2.86 7.94 7.24 15.1 11.6 22.3 0.746 1.26 1.49 2.53 2.23 3.79 1.46 2.47 2.94 4.92 4.44 7.37 1.68 2.75 3.3 5.53 4.91 8.34 0.869 1.48 1.74 2.96 2.61 4.44 0.392 0.705 0.784 1.41 1.19 2.14 1.79 2.99 2.91 4.71 6.32 5.73 4.99-1.22 8.8-3.87 13.1-6.68 1.87-1.2 3.74-2.39 5.61-3.58 1.41-0.896 1.41-0.896 2.85-1.81 4.87-3.02 9.89-5.76 14.9-8.48 7.11-3.72 7.11-3.72 13.3-8.73 12.5-12.3 32.4-17.4 49.2-17.8 22.2 0.392 41.6 8.38 57.5 23.8 1.8 1.75 1.8 1.75 4.77 2.53 0.675-0.687 1.35-1.37 2.05-2.08l2.7-2.73c0.882-0.893 1.76-1.79 2.67-2.71 5.7-5.48 5.7-5.48 8.58-5.48-2.44-3.97-4.91-7.91-7.54-11.8-18.9-27.9-29-58.4-28.7-92.1 0.00377-0.699 0.00753-1.4 0.0114-2.12 0.109-17.3 2.13-32.4 7.55-48.8 0.565-1.76 1.07-3.54 1.55-5.32 3.89-13.8 12.2-27.1 20.6-38.6 1.9-2.7 3.59-5.48 5.23-8.34 1.84-2.6 4.06-4.67 6.34-6.89 0.9-0.923 1.8-1.85 2.73-2.8 9.84-10.1 20.3-18.8 32.3-26.2 0.751-0.463 1.5-0.927 2.27-1.4 21.8-13.3 46.9-23.7 72.8-23.8 0.868-0.00333 1.74-0.00666 2.63-0.0101 1.84-0.00505 3.67-0.00741 5.51-0.00725 2.76-0.00217 5.52-0.0203 8.29-0.0393 18.3-0.0595 35.4 2.28 52.5 9.22l2.21 0.828c10.7 4.06 20.6 9.29 30.3 15.3 0.658 0.408 1.32 0.815 1.99 1.23 3.09 1.96 5.98 3.98 8.76 6.36 2.87 2.38 5.16 3.34 8.74 4.28 0.264-0.687 0.529-1.37 0.801-2.08 3.99-9.7 8.84-18.6 15.2-26.9 0.392-0.526 0.783-1.05 1.19-1.59 12-16.1 26-29.3 42.8-40.4 0.951-0.637 1.9-1.27 2.88-1.93 25.1-16.2 54-24.3 83.8-24.2 2.27 0.00535 4.55 3.35e-5 6.82-0.00635 44.6-0.0223 83.2 19.8 114 50.6 6.91 6.97 12.9 14.2 18.1 22.5 0.429 0.681 0.858 1.36 1.3 2.06 5.41 8.67 10.1 17.3 13.7 26.9 0.259 0.643 0.518 1.29 0.785 1.95 0.794 2 1.51 4.02 2.21 6.05 0.38 1.06 0.761 2.11 1.15 3.2 10.1 29.1 9.75 58.9 3.85 88.8-0.144 0.743-0.288 1.49-0.437 2.25-2.25 11-6.94 21.2-11.6 31.4-1.14 2.73-2.05 5.56-2.99 8.37 7.92 5.44 7.92 5.44 16 11 0.0864-1.88 0.173-3.75 0.262-5.68 2.03-38.7 11.1-72.1 34.7-103 0.593-0.801 1.19-1.6 1.8-2.43 11.5-15 25.9-27.9 42.2-37.6 0.584-0.351 1.17-0.701 1.77-1.06 10-6 20.3-10.8 31.2-14.9 0.804-0.316 1.61-0.632 2.44-0.957 28.9-10.5 68.7-12.9 97.6-1.04 1.52 0.37 3.04 0.723 4.56 1.06 5.88 1.55 11.3 3.94 16.8 6.44 0.868 0.392 1.74 0.784 2.63 1.19 4.15 1.91 8.12 3.89 12 6.31 1.33 0.675 2.66 1.34 4 2-0.984-37.8-2.32-75.5-3.93-113-0.135-3.16-0.268-6.33-0.401-9.49-0.211-5.02-0.427-10-0.646-15.1-0.0811-1.87-0.161-3.73-0.239-5.6-0.108-2.56-0.222-5.13-0.337-7.69-0.0307-0.752-0.0613-1.5-0.0929-2.28-0.156-3.35-0.459-6.43-1.36-9.67-0.135-1.4-0.232-2.81-0.297-4.22-0.04-0.821-0.0799-1.64-0.121-2.49-0.0386-0.876-0.0772-1.75-0.117-2.66-0.0645-1.36-0.0645-1.36-0.13-2.74-0.136-2.88-0.267-5.77-0.397-8.65-0.0914-1.96-0.183-3.91-0.275-5.87-0.225-4.79-0.445-9.59-0.662-14.4 7.1-3.55 18.6-0.85 26 1zm-21 60 1 4zm1 29 1 3zm2 44 1 4zm-249 200 1 4zm-583 3 1 2zm583 8v10h1v-10h-1zm-270 43c-0.545 1.06-1.09 2.13-1.65 3.23-7.66 14.8-15.9 27.8-27 40.3-1.74 1.96-3.4 3.99-5.08 6-2.83 3.24-5.97 5.7-9.46 8.19-2.16 1.58-3.97 3.35-5.79 5.31l-1.69 1.56c-1.57 1.52-1.57 1.52-2.31 4.44 8.86 0.301 17.4-0.622 26.2-1.81 1.38-0.183 2.76-0.365 4.14-0.548 15.2-0.771 15.2-0.771 28.7-5.64 2.96-0.541 5.94-0.965 8.92-1.4 2.95-0.572 5.31-1.46 8.08-2.6 2.66-0.79 5.33-1.56 8-2.31 7.51-2.16 14.7-4.77 22-7.69 2.44-0.941 4.87-1.88 7.31-2.81 1.09-0.419 2.18-0.838 3.3-1.27 0.788-0.303 1.58-0.606 2.39-0.918v-2l2.81-0.312c3.22-0.695 4.21-1.16 6.19-3.69h-2v-2c-0.584-0.161-1.17-0.322-1.77-0.487-2.7-0.748-5.4-1.51-8.11-2.26-0.918-0.253-1.84-0.505-2.78-0.766-9.19-2.59-17.8-6.04-26.3-10.4-0.689-0.349-1.38-0.698-2.09-1.06-9.08-4.64-17.2-9.91-25.2-16.2-2.45-1.7-3.84-2.26-6.66-2.86zm-570 15 1 2zm238 79c-1.13 0.631-2.27 1.26-3.44 1.91-1.21 0.686-2.42 1.37-3.63 2.06-1.24 0.694-2.47 1.39-3.71 2.08-8.34 4.71-16.4 9.67-24.4 15-9.39 6.04-19.1 11.5-28.9 16.8-6.68 3.68-13 7.68-19.1 12.2 3.18 8.09 7.63 15.6 12.2 23 1.53 2.53 3.03 5.07 4.52 7.62 0.98 1.66 1.96 3.31 2.94 4.97 0.701 1.22 0.701 1.22 1.42 2.46 0.453 0.758 0.906 1.52 1.37 2.3 0.402 0.685 0.803 1.37 1.22 2.08 1.67 1.96 2.86 2.24 5.37 2.61 0.159-0.534 0.317-1.07 0.48-1.62 1.69-5.41 3.87-10.3 6.53-15.3 1.13-1.99 1.13-1.99 0.988-4.07h2l1-4h2c1.37-1.72 1.37-1.72 2.62-3.88 0.669-1.08 0.669-1.08 1.35-2.18 1.18-1.87 1.18-1.87 1.02-3.95h2c0.33-1.32 0.66-2.64 1-4h2c1.36-1.7 1.36-1.7 2.71-3.92 3.17-4.92 6.54-9.66 9.98-14.4 0.568-0.784 1.14-1.57 1.72-2.38 4.37-6.04 4.37-6.04 6.27-8.44 1.51-1.77 1.51-1.77 1.32-3.87h2c1.53-1.84 1.53-1.84 3-4.19 0.773-1.17 0.773-1.17 1.56-2.36 1.42-2.43 2.46-4.82 3.44-7.46h2c1.56-1.91 1.56-1.91 3.06-4.31 0.527-0.801 1.05-1.6 1.6-2.43 1.47-2.3 1.47-2.3 2.34-5.26-4.45 0-5.98 0.827-9.8 2.96zm-8.2 176 1 2z" fill="#000002"/>
<path transform="translate(881 520)" d="m0 0c2.27 0.00535 4.55 3.35e-5 6.82-0.00635 44.6-0.0223 83.2 19.8 114 50.6 6.91 6.97 12.9 14.2 18.1 22.5 0.643 1.02 0.643 1.02 1.3 2.06 5.41 8.67 10.1 17.3 13.7 26.9 0.259 0.643 0.518 1.29 0.785 1.95 0.794 2 1.51 4.02 2.21 6.05 0.38 1.06 0.761 2.11 1.15 3.2 10.1 29.1 9.75 58.9 3.85 88.8-0.144 0.743-0.288 1.49-0.437 2.25-7.89 38.7-34.6 74.1-66.9 95.8-2.53 1.66-5.07 3.31-7.62 4.94-1.5 0.963-1.5 0.963-3.03 1.95-35.3 21.6-76 22.2-116 18.1v-2c-0.646-0.0632-1.29-0.126-1.96-0.191-23.2-3.02-46.2-15.6-64.4-30-2.37-1.65-3.85-2.45-6.66-2.86-0.473 0.993-0.946 1.99-1.43 3.01-6.82 14.1-14.5 26.3-25 38-2.54 2.8-2.54 2.8-4.33 5.36-0.42 0.529-0.84 1.06-1.27 1.6h-2c-0.251 0.599-0.503 1.2-0.762 1.82-1.4 2.48-2.72 3.51-5.05 5.12-2.57 1.84-4.88 3.64-7.06 5.94-0.701 0.701-1.4 1.4-2.12 2.12h-2c-0.33 0.99-0.66 1.98-1 3-3.11 2.64-6.58 4.78-10 7-0.856 0.559-1.71 1.12-2.59 1.7-35.8 22.1-78.6 27.1-119 19.3-0.876-0.166-1.75-0.333-2.65-0.504-5.65-1.1-10.9-2.53-16.3-4.5-1.21-0.423-2.42-0.846-3.66-1.28-20.4-7.27-39.1-18.8-55-33.6-2.1-1.92-4.26-3.72-6.46-5.52-4.84-4.21-8.26-9.36-11.9-14.6-0.88-1.22-0.88-1.22-1.78-2.47-21-29.2-32.8-61.2-32.5-97.4 0.00377-0.699 0.00753-1.4 0.0114-2.12 0.109-17.3 2.13-32.4 7.55-48.8 0.565-1.76 1.07-3.54 1.55-5.32 3.89-13.8 12.2-27.1 20.6-38.6 1.9-2.7 3.59-5.48 5.23-8.34 1.84-2.6 4.06-4.67 6.34-6.89 0.9-0.923 1.8-1.85 2.73-2.8 9.84-10.1 20.3-18.8 32.3-26.2 0.751-0.463 1.5-0.927 2.27-1.4 21.8-13.3 46.9-23.7 72.8-23.8 1.3-0.00499 1.3-0.00499 2.63-0.0101 1.84-0.00505 3.67-0.00741 5.51-0.00725 2.76-0.00217 5.52-0.0203 8.29-0.0393 18.3-0.0595 35.4 2.28 52.5 9.22 0.728 0.273 1.46 0.547 2.21 0.828 10.7 4.06 20.6 9.29 30.3 15.3 0.987 0.611 0.987 0.611 1.99 1.23 3.09 1.96 5.98 3.98 8.76 6.36 2.87 2.38 5.16 3.34 8.74 4.28 0.264-0.687 0.529-1.37 0.801-2.08 3.99-9.7 8.84-18.6 15.2-26.9 0.588-0.788 0.588-0.788 1.19-1.59 12-16.1 26-29.3 42.8-40.4 0.951-0.637 1.9-1.27 2.88-1.93 25.1-16.2 54-24.3 83.8-24.2zm-418 238 1 2z" fill="#FBFCFE"/>
<path transform="translate(1313,422)" d="m0 0c0.66 0.33 1.32 0.66 2 1 1.08 0.36 1.08 0.36 2.18 0.727 13.3 4.44 22.9 11.6 32.8 21.3 1.21 1.06 1.21 1.06 2.44 2.14 14 12.7 21.3 33 22.2 51.6 0.0907 3.5 0.118 6.99 0.0974 10.5-0.0217 3.9 0.0244 7.81 0.0658 11.7 0.0214 2.04 0.0399 4.07 0.0553 6.11 0.0863 10 0.548 20 1.05 30.1 0.669 13.7 1.2 27.4 1.6 41.1 0.0221 0.748 0.0442 1.5 0.0669 2.27 0.22 7.51 0.433 15 0.637 22.5 0.0773 2.82 0.157 5.64 0.236 8.47 0.0534 1.93 0.103 3.85 0.153 5.78 0.17 6.06 0.436 12.1 0.865 18.2 0.509 7.25 0.766 14.5 0.948 21.8 0.0562 2.24 0.116 4.48 0.177 6.72 0.151 5.55 0.295 11.1 0.439 16.7 0.123 4.72 0.248 9.44 0.377 14.2 0.0585 2.18 0.113 4.36 0.168 6.54 0.194 7.32 0.568 14.6 1.17 21.9 0.29 3.79 0.396 7.57 0.422 11.4 0.00701 0.732 0.014 1.46 0.0213 2.22 0.0172 2.32 0.0238 4.64 0.0256 6.96 6.75e-4 0.796 0.00135 1.59 0.00204 2.41-0.047 34.9-11.4 63.6-35.1 89.2-3.54 3.82-6.72 7.75-9.81 11.9-11 14.8-25.1 26.5-40.3 36.8-1.3 0.917-1.3 0.917-2.62 1.85-34.6 23.6-80.7 26.9-121 19.7-14.4-2.79-30.1-6.94-42.5-15.1-2.41-1.59-4.89-2.88-7.45-4.2-4.6-2.48-8.87-5.29-13.1-8.31-0.583-0.412-1.17-0.823-1.77-1.25-3.63-2.63-6.74-5.45-9.86-8.69-1.47-1.45-2.95-2.91-4.43-4.36-1.63-1.61-3.26-3.22-4.89-4.83-1.25-1.23-1.25-1.23-2.53-2.48-0.79-0.783-1.58-1.57-2.39-2.37-1.08-1.07-1.08-1.07-2.19-2.16-1.57-1.8-1.57-1.8-1.57-3.8h-2c-1.57-1.84-2.98-3.66-4.38-5.62-0.65-0.914-0.65-0.914-1.31-1.85-11.8-17.1-20.5-35.3-24.9-55.6-0.405-1.73-0.916-3.43-1.44-5.13-2.66-10-3.37-20-3.32-30.3 0.00419-1.21 0.00838-2.43 0.0127-3.68 0.133-10.8 1.22-21.2 3.3-31.8 0.15-0.764 0.3-1.53 0.454-2.31 4.96-24.4 15.6-45.9 30.5-65.7 0.593-0.801 1.19-1.6 1.8-2.43 11.5-15 25.9-27.9 42.2-37.6 0.584-0.351 1.17-0.701 1.77-1.06 10-6 20.3-10.8 31.2-14.9 1.21-0.474 1.21-0.474 2.44-0.957 28.9-10.5 68.7-12.9 97.6-1.04 1.52 0.37 3.04 0.723 4.56 1.06 5.88 1.55 11.3 3.94 16.8 6.44 0.868 0.392 1.74 0.784 2.63 1.19 4.15 1.91 8.12 3.89 12 6.31 1.33 0.675 2.66 1.34 4 2-0.984-37.8-2.32-75.5-3.93-113-0.135-3.16-0.268-6.33-0.401-9.49-0.211-5.02-0.427-10-0.646-15.1-0.0811-1.87-0.161-3.73-0.239-5.6-0.108-2.56-0.222-5.13-0.337-7.69-0.046-1.13-0.046-1.13-0.0929-2.28-0.156-3.35-0.459-6.43-1.36-9.67-0.135-1.4-0.232-2.81-0.297-4.22-0.04-0.821-0.0799-1.64-0.121-2.49-0.0386-0.876-0.0772-1.75-0.117-2.66-0.043-0.904-0.086-1.81-0.13-2.74-0.136-2.88-0.267-5.77-0.397-8.65-0.0914-1.96-0.183-3.91-0.275-5.87-0.225-4.79-0.445-9.59-0.662-14.4 7.1-3.55 18.6-0.85 26 1zm-21 60 1 4zm1 29 1 3zm2 44 1 4zm-249 200 1 4zm0 11v10h1v-10h-1z" fill="#FBFCFE"/>
<path transform="translate(426 706)" d="m0 0c10.4 8.91 20 18.2 27.7 29.7 0.455 0.672 0.91 1.34 1.38 2.04 2.36 3.74 3.4 6.57 2.62 11-3.06 3.66-6.86 5.89-10.9 8.25-1.35 0.794-2.7 1.59-4.05 2.38-0.675 0.396-1.35 0.792-2.04 1.2-2.91 1.72-5.78 3.51-8.66 5.29-5.15 3.18-10.4 6.25-15.6 9.28-2.35 1.38-4.66 2.81-6.96 4.28-12 7.53-12 7.53-17.8 6.31-4.93-3.15-7.81-7.17-11-12-8.42-10.3-21-15.8-34-18-16.4-0.924-30.4 3.08-43.3 13.5-4.98 4.55-8.58 9.57-11.7 15.5-0.351 0.628-0.701 1.26-1.06 1.9-6.45 12-7.05 27.8-3.5 40.8 2.86 7.94 7.24 15.1 11.6 22.3 0.746 1.26 1.49 2.53 2.23 3.79 1.46 2.47 2.94 4.92 4.44 7.37 1.68 2.75 3.3 5.53 4.91 8.34 0.869 1.48 1.74 2.96 2.61 4.44 0.392 0.705 0.784 1.41 1.19 2.14 1.79 2.99 2.91 4.71 6.32 5.73 4.99-1.22 8.8-3.87 13.1-6.68 1.87-1.2 3.74-2.39 5.61-3.58 0.939-0.598 1.88-1.2 2.85-1.81 4.87-3.02 9.89-5.76 14.9-8.48 7.11-3.72 7.11-3.72 13.3-8.73 12.5-12.3 32.4-17.4 49.2-17.8 23.2 0.41 42.7 9.25 59.3 25.3 0.887 0.804 1.77 1.61 2.69 2.44 4.46 4.94 8.32 9.87 9.31 16.6-0.978 0.519-1.96 1.04-2.96 1.57-11.9 6.31-11.9 6.31-23.7 13-5.54 3.3-11.1 6.35-16.9 9.17-13.3 6.52-26 14.2-38.4 22.2-9.44 6.04-19.2 11.5-29 16.9-6.21 3.44-12.2 7.04-18 11.1 4.19 10.7 10.5 20.5 16.6 30.1 0.457 0.723 0.913 1.45 1.38 2.19 0.917 1.45 1.84 2.9 2.76 4.34 3.25 5.13 3.25 5.13 3.25 7.36h2c0.283 0.516 0.567 1.03 0.859 1.56 3.51 6.37 7.16 12.7 10.8 18.9 0.619 1.06 1.24 2.12 1.87 3.21 1.24 2.12 2.48 4.25 3.73 6.37 1.47 2.51 2.93 5.02 4.39 7.53 5.09 8.73 10.3 17.3 15.7 25.9 1.04 1.66 2.07 3.32 3.1 4.99 1.05 1.7 2.11 3.39 3.17 5.08 3.02 4.89 5.38 9.43 7.12 14.9 0.387 1.19 0.773 2.37 1.17 3.59 6.48 22.4 3.9 46.3-6.92 66.9-5.96 10-14.8 20.1-25 26-2.69 0.125-2.69 0.125-5-1-3.71-4.14-6.37-8.83-9.12-13.6-0.877-1.51-1.75-3.03-2.63-4.54-0.383-0.665-0.766-1.33-1.16-2.01-0.974-1.64-2.02-3.23-3.08-4.82v-3c-0.99-0.33-1.98-0.66-3-1-1.82-2.84-1.82-2.84-3.69-6.38-0.934-1.74-0.934-1.74-1.89-3.52-1.43-3.1-1.43-3.1-1.43-6.1-0.99-0.33-1.98-0.66-3-1-1.36-2.12-1.36-2.12-2.75-4.88-2.04-3.91-4.17-7.67-6.56-11.4-3.99-6.17-7.74-12.5-11.5-18.8-2.01-3.37-4.04-6.74-6.06-10.1-0.727-1.21-1.45-2.42-2.18-3.63-1.21-2.01-2.44-4.01-3.7-5.98-1.24-2.26-1.24-2.26-1.24-5.26h-2c-0.557-1-1.11-2.01-1.69-3.04-4.27-7.66-8.64-15.2-13.3-22.7-2.65-4.27-5.23-8.57-7.8-12.9-1.69-2.84-3.4-5.66-5.14-8.47-0.548-0.886-1.1-1.77-1.66-2.68-0.476-0.758-0.951-1.52-1.44-2.3-0.996-1.95-0.996-1.95-0.996-4.95h-2c-0.51-0.965-0.51-0.965-1.03-1.95-3.38-6.3-6.99-12.4-10.8-18.5-2.44-3.95-4.79-7.95-7.14-12-3.16-5.39-6.34-10.8-9.56-16.1-3.17-5.27-6.32-10.6-9.44-15.9-0.625-1.06-0.625-1.06-1.26-2.15-2.11-3.59-4.21-7.18-6.3-10.8-4.07-6.97-8.19-13.9-12.5-20.7-4.74-7.53-9.26-15.2-13.7-22.9-1.26-2.15-2.54-4.29-3.83-6.43-18.8-31.4-28.6-62.9-20.4-99.7 3.41-13.1 8.5-25.2 15-37 0.48-0.896 0.959-1.79 1.45-2.71 4.02-7.12 9.16-13.4 14.3-19.7 1.13-1.4 2.24-2.83 3.34-4.25 2.93-3.54 6.41-6.34 9.91-9.3 0.928-0.825 1.86-1.65 2.81-2.5 11.2-9.23 25.3-16.8 38.2-23.5 0.63-0.334 1.26-0.668 1.91-1.01 11.4-5.55 24.1-8.08 36.6-9.8 0.895-0.124 1.79-0.248 2.71-0.375 31.9-4.02 67.3 4.85 92.1 25.5zm-220 118 1 2z" fill="#FBFCFE"/>
<path transform="translate(1248,672)" d="m0 0c1.13 0.517 2.25 1.03 3.41 1.57 7.19 3.39 13.6 7.18 19.6 12.4 0.821 0.701 1.64 1.4 2.49 2.12 19.7 17.2 32.6 39.7 35.5 65.9 1.66 28.2-4.11 53.5-22.2 75.6-0.437 0.534-0.874 1.07-1.32 1.62-1.09 1.29-2.26 2.53-3.43 3.76h-2c-0.33 0.99-0.66 1.98-1 3-6.04 6.72-14.3 11.4-22 16-1.05 0.636-1.05 0.636-2.12 1.29-20.2 11.1-48.8 13.4-70.8 7.18-13.3-3.91-13.3-3.91-16.1-7.46 1.38-2 1.38-2 3-4h2v-2c10.5-8.63 24.2-17.8 38-18.3 19.4-0.831 32.4-3.28 47-16.7 0.672-0.592 1.34-1.18 2.04-1.79 16.2-15.1 27.5-37.6 29.2-59.6 0.23-8.26-1.06-15.4-6.44-21.9-4.68-4.46-9.85-4.85-16.1-5.04-18.1 0.5-32.3 10.9-44.6 23.4-5 5-5 5-7.31 7.19-12.2 12.8-18.7 25.7-22.3 42.9-4.34 20-17.7 36.5-34.4 47.9-3.27 0.668-5.16 0.514-8.02-1.24-2.05-1.53-4.01-3.12-5.98-4.76-0.74-0.519-1.48-1.04-2.24-1.57-0.58-0.471-1.16-0.941-1.76-1.43v-2h-2v-2c-0.574-0.236-1.15-0.472-1.74-0.715-7.58-4.31-12.3-13.6-16.3-21.1-0.579-1.08-0.579-1.08-1.17-2.17-2.04-3.96-3.6-7.48-3.83-12 1.63-2.12 2.93-3.38 5-5 1.02-0.837 1.02-0.837 2.06-1.69 14.4-11.5 14.4-11.5 23.8-11.3 1.74 0.0319 1.74 0.0319 3.51 0.0645 2.42 0.0527 4.84 0.117 7.26 0.195 9.13 0.136 16.7-1.08 24.3-6.28 0.71-0.69 1.42-1.38 2.15-2.09 1.22-1.18 1.22-1.18 2.47-2.39 14.6-15 27.6-31.5 39.3-48.8 1.29-1.9 2.6-3.8 3.9-5.69 0.908-1.33 1.82-2.66 2.72-4 0.425-0.615 0.851-1.23 1.29-1.86 2.44-3.62 4.1-7 5.27-11.2-3.95 2.91-6.86 6.14-9.75 10.1-0.876 1.17-1.75 2.33-2.63 3.49-0.437 0.58-0.875 1.16-1.33 1.76-2.62 3.42-5.38 6.73-8.13 10.1-2.17 2.65-4.29 5.32-6.41 8.01-2.74 3.44-5.56 6.6-8.75 9.62-0.556 0.576-1.11 1.15-1.68 1.75-3.26 3.37-6.24 5.89-10.3 8.25-1.7 1.63-3.38 3.29-5 5 1.26-3.49 2.74-6.08 5-9 0.402-0.556 0.804-1.11 1.22-1.68 3.73-5.1 7.76-9.9 11.9-14.7 2.65-3.07 4.9-6.12 6.87-9.66 3.5-5.87 3.5-5.87 6.12-6.56 0.619-0.144 1.24-0.289 1.88-0.438 1.02-2.18 1.02-2.18 2-5 3.85-6.86 3.85-6.86 6.49-9.48 1.74-1.76 2.91-3.6 4.2-5.71 0.437-0.715 0.874-1.43 1.32-2.17 0.326-0.543 0.652-1.09 0.988-1.64h-2c-0.371 1.18-0.371 1.18-0.75 2.38-1.46 3.06-2.33 3.21-5.25 4.62-0.362 1.33-0.697 2.66-1 4-1.48 0.495-1.48 0.495-3 1-1.74 2.34-1.74 2.34-3.38 5.19-3.22 5.23-6.47 9.68-10.8 14-3.91 3.94-7.66 8.02-11.4 12.1-4.02 4.33-8.14 8.55-12.3 12.7-0.66-0.66-1.32-1.32-2-2 0.99-0.33 1.98-0.66 3-1 0.464-0.959 0.464-0.959 0.938-1.94 1.3-2.52 2.48-3.03 5.06-4.06-0.33-0.99-0.66-1.98-1-3 1.11-1.72 1.11-1.72 2.75-3.5 0.531-0.588 1.06-1.18 1.61-1.78 0.987-1.03 1.99-2.05 3.02-3.04 11.2-11.6 20.1-26 28.6-39.7-0.375 0.482-0.75 0.964-1.14 1.46-3.09 3.82-5.18 5.85-9.86 7.54-0.266 0.545-0.531 1.09-0.805 1.65-1.69 3.32-4.13 5.94-6.57 8.72-1.1 1.26-2.19 2.52-3.29 3.78-0.558 0.641-1.12 1.28-1.69 1.94-1.55 1.79-3.07 3.59-4.58 5.41-5.43 6.49-11.1 12.7-17 18.7-0.627 0.644-1.25 1.29-1.9 1.95-3.18 3.17-5.72 5.55-10.2 6.8 0-3.26 0.481-5.38 2.6-7.9 1.39-1.36 2.79-2.7 4.21-4.03 3.9-3.7 7.31-7.85 10.8-12 0.505-0.596 1.01-1.19 1.53-1.8 0.654-0.779 0.654-0.779 1.32-1.57 1.27-1.41 2.6-2.77 3.95-4.1 2.57-2.6 4.87-5.29 7.17-8.14 0.744-0.918 1.49-1.84 2.25-2.78 0.721-0.897 1.44-1.79 2.18-2.72 0.688-0.844 1.38-1.69 2.09-2.56 1.78-2.27 3.4-4.58 4.98-7 1.49-2.28 2.94-4.44 4.68-6.53 0.621-0.946 0.621-0.946 1.25-1.91-0.495-1.49-0.495-1.49-1-3-1.31 1.62-2.63 3.25-3.94 4.88-1.1 1.36-1.1 1.36-2.21 2.74-1.85 2.23-1.85 2.23-2.85 4.38h-2c-0.244 0.562-0.487 1.12-0.738 1.7-1.5 2.74-3.33 4.75-5.45 7.05-2.85 3.1-5.65 6.22-8.38 9.44-2.9 3.34-6.04 6.19-9.41 9.04-2.05 1.8-3.94 3.69-5.84 5.65-6.46 6.55-13.8 12.1-21.1 17.6-2.45 1.84-4.88 3.7-7.29 5.59-0.81 0.63-1.62 1.26-2.45 1.91-4.78 4.22-6.69 7.12-7.23 13.5-0.789 6.15-0.789 6.15-3.38 9.5-1.33 0.99-1.33 0.99-2.69 2-0.887 0.928-1.77 1.86-2.69 2.81-2.31 2.19-2.31 2.19-4.31 2.19-0.33 0.99-0.66 1.98-1 3-3.34 2.79-4.96 4.08-9.38 3.75-1.3-0.371-1.3-0.371-2.62-0.75-5.25-25.4 1.19-51.5 15-73 3.5-5.03 7.34-9.7 11.5-14.2 0.447-0.494 0.895-0.989 1.36-1.5 3.17-3.45 6.5-6.39 10.1-9.31 1.25-1.04 1.25-1.04 2.53-2.1 26.9-20.7 66.6-26.3 97.5-11.9z" fill="#000002"/>
<path transform="translate(927 593)" d="m0 0c0.677 0.335 1.35 0.669 2.05 1.01 4.15 2.08 8 4.39 11.8 7.05 0.641 0.432 1.28 0.864 1.94 1.31 3.74 2.61 6.93 5.34 10.1 8.69 0.646 0.652 1.29 1.3 1.96 1.98 19.8 20.7 28.7 47 28.3 75.4-0.422 12.5-2.19 27.7-10.2 37.7-0.776-3.52-1.19-6.91-1.39-10.5-1.38-21.8-5.96-37-19.6-54.5-0.593-0.772-1.19-1.54-1.8-2.34-11.2-13.6-28.5-23.2-45.9-25.4-14.3-1.33-28.8-1.66-42.3 3.78-1.03 0.374-2.05 0.748-3.11 1.13-21.3 8.18-36 24-45.6 44.4-4.99 11.4-6.48 21.1-6.44 33.4-0.00387 1.05-0.00773 2.11-0.0117 3.2-0.045 10-0.045 10 2.51 19.7 1.17 2.96 2.28 5.92 3.31 8.94 0.251 0.728 0.503 1.46 0.762 2.21 0.551 1.98 0.551 1.98 0.551 4.98-18.6-15.1-28.6-37.2-31.5-60.8-1.54-15.8 1.15-30.3 6.46-45.2 0.308-0.913 0.616-1.83 0.934-2.77 8.94-24.6 29.3-43.5 52.4-54.6 27.5-12.1 57.9-12.3 84.8 1.34z" fill="#000002"/>
<path transform="translate(648,645)" d="m0 0c1.57 0.333 1.57 0.333 3.17 0.672 14.5 3.55 28.9 11.1 39.8 21.3 0.875 0.785 1.75 1.57 2.65 2.38 21 19.7 29.9 44.5 32.3 72.6-3.89-3.54-6.05-6.71-8.19-11.5-3.62-7.68-8.34-14-13.8-20.5-0.636-0.75-1.27-1.5-1.93-2.27-5.74-6.22-12.9-10.4-20.1-14.7-0.71-0.434-1.42-0.869-2.15-1.32-8.65-4.83-20-7.27-29.8-7.68-0.824-0.04-1.65-0.0799-2.5-0.121-16.6-0.411-32.3 3.45-46.5 12.1-0.77 0.463-1.54 0.926-2.33 1.4-19.4 12.3-31.2 31.6-36.7 53.6-4.38 19.7-0.394 43.2 10.5 60.4 1.14 1.57 2.32 3.11 3.5 4.65v2h2c1.38 1.43 1.38 1.43 3 3.44 3.63 4.31 7.68 7.93 12 11.6 2.04 1.98 2.04 1.98 3.04 4.98-15.3-1.24-33.8-14.8-43.7-25.9-1.11-1.37-2.21-2.75-3.31-4.12-0.706-0.786-1.41-1.57-2.14-2.38-16.5-18.8-23.1-43.8-22-68.4 0.979-14.5 5.85-27.9 12.2-40.8 0.492-1 0.492-1 0.995-2.02 1.96-3.85 4.13-7.11 6.94-10.4 0.663-0.851 1.33-1.7 2.01-2.58 16.2-20.4 40.4-34.8 66.4-38.1 11.6-0.898 23.2-0.948 34.6 1.72z" fill="#000002"/>
<path transform="translate(680,979)" d="m0 0c9.82 7.25 16.1 16.8 18 29 0.877 14.3-0.684 30-10.1 41.5-8.85 9.23-18.4 13.3-31.2 13.6-8.13 0.0806-15.8 0.038-23.7-2.17-0.815-0.195-1.63-0.389-2.47-0.59-9.55-2.49-17.4-7.63-24.5-14.4v-2h-2c-8.2-14.7-8.41-27.9-4-44 3.96-10.5 10.2-19.9 20.5-24.9 19-8.04 41.7-7.58 59.5 3.94z" fill="#FCFDFF"/>
<path transform="translate(894 953)" d="m0 0c7.68 7.06 13.9 17.1 16.6 27.2 0.0302 1.67 0.0349 3.33 0 5-2.24 0.745-4.47 1.49-6.71 2.24-1.91 0.638-3.83 1.28-5.74 1.92-4.34 1.45-8.69 2.9-13 4.32-0.664 0.218-1.33 0.437-2.01 0.661-1.76 0.577-3.52 1.15-5.27 1.73-3.29 1.12-3.29 1.12-6.62 2.63-4.62 1.93-9.34 3.25-14.2 4.53-2.33 0.634-2.33 0.634-5.43 1.98-1.23 1.94-1.23 1.94-1 4 1.39 2.13 1.39 2.13 3 4v2c6.45 3.46 12.6 3.75 19.7 2.19 5.61-1.91 5.61-1.91 9.31-6.19 0.232-2.27 0.381-4.53 0.523-6.81 0.589-2.71 1.37-3.43 3.48-5.19 2.17-0.967 2.17-0.967 4.68-1.79 0.911-0.302 1.82-0.603 2.76-0.914 0.949-0.304 1.9-0.608 2.88-0.922 0.938-0.312 1.88-0.624 2.84-0.945 4.59-1.5 9.03-2.83 13.8-3.43 3.43 5.63 2.78 13.1 1.54 19.3-3.72 11.1-12.3 17.6-22.3 22.8-16.3 7.83-33.4 12.2-51.2 7.38-12.5-4.49-19.8-14-25.3-25.7-5.36-12.1-5.94-24.5-1.62-36.8 1.72-3.25 3.72-6.13 6-9 0.755-0.981 1.51-1.96 2.29-2.97 2.65-3.15 5.73-5.42 9.21-7.59 0.612-0.385 1.22-0.77 1.86-1.17 16.9-10.3 42.6-17.4 60-4.5z" fill="#FCFDFF"/>
<path transform="translate(524,907)" d="m0 0c8.72 2.86 17.4 5.84 26 9 1.41 0.507 1.41 0.507 2.85 1.02 2.15 0.977 2.15 0.977 3.15 2.98 0.799 6.14-1.79 11.1-4.12 16.6-0.914 2.22-1.82 4.44-2.73 6.67-0.5 1.22-0.999 2.43-1.51 3.69-3.1 7.61-6.04 15.3-9 23-0.891 2.3-1.78 4.6-2.67 6.9-0.559 1.44-1.12 2.88-1.67 4.33-1.81 4.68-3.69 9.33-5.63 14-0.804 2.02-0.804 2.02-0.642 4.88 7.39 3.3 14.8 6.36 22.4 9 10.1 3.48 20.1 7.12 29.6 12-0.484 6.8-1.95 12.3-4.56 18.6-0.329 0.818-0.659 1.64-0.998 2.48-0.803 1.99-1.62 3.98-2.44 5.96-6.21-0.358-11-2.08-16.7-4.56-6.01-2.61-12.1-4.9-18.3-7.25-1.37-0.528-2.73-1.06-4.1-1.58-9.55-3.69-19.1-7.35-28.7-11-0.718-0.273-1.44-0.546-2.18-0.827-1.41-0.533-2.83-1.06-4.25-1.58-3.91-1.43-7.65-3-11.4-4.9-0.856-0.437-1.71-0.874-2.59-1.32-0.629-0.326-1.26-0.652-1.91-0.988 0.596-4.54 1.8-8.34 3.56-12.6 0.546-1.33 1.09-2.65 1.63-3.98 0.292-0.713 0.583-1.43 0.884-2.16 1.68-4.2 3.26-8.44 4.86-12.7 2.47-6.52 5-13 7.69-19.4 2.14-5.13 4.19-10.3 6.12-15.5 2.67-7.2 5.41-14.4 8.19-21.5 0.493-1.27 0.984-2.54 1.47-3.81 0.693-1.8 1.39-3.6 2.1-5.4 0.407-1.05 0.814-2.1 1.23-3.18 1.17-2.59 2.45-4.59 4.26-6.77z" fill="#FCFDFF"/>
<path transform="translate(1026 852)" d="m0 0c1.01-0.028 1.01-0.028 2.04-0.0566 5 0.0643 7.88 1.4 11.7 4.56 1.88 3.25 1.88 3.25 3 6h-3c-0.33 0.99-0.66 1.98-1 3-1.7 1.52-3.46 2.97-5.25 4.38-3 2.36-5.7 4.58-8.27 7.41-2.48 2.21-2.48 2.21-5.16 2.56-1.36-0.141-1.36-0.141-2.75-0.285-5.15-0.235-7.58 0.433-11.6 3.94-1.39 1.21-1.39 1.21-2.81 2.44-2.28 2.67-3 4.1-3.19 7.56l1 1c8.43 0 13.2-3.34 20-8 20.3-13 20.3-13 30.6-11.9 9.13 2.49 14.2 6.74 19.2 14.7 3.8 6.81 4.37 13.8 2.52 21.2-5.74 17.1-19 29.4-34.6 37.8-6.57 3.05-12.1 4.4-19.3 4.49-0.778 0.029-1.56 0.058-2.36 0.0879-5.79 0.0628-10.1-1.16-15-4.4-2-2.25-2-2.25-3-4 3.56-3.59 7.17-7.12 10.9-10.6 0.491-0.469 0.982-0.937 1.49-1.42 3.61-3.35 7.21-5.84 11.6-8.02 0.99 0.495 0.99 0.495 2 1 4.62 0.769 8.48 0.864 12.6-1.49 4.31-3.21 4.31-3.21 7.38-7.51 0.0689-1.37 0.0847-2.75 0.0625-4.12-0.0206-1.28-0.0412-2.56-0.0625-3.88-2.51-0.945-3.64-1.14-6.16-0.137-0.812 0.478-1.62 0.956-2.46 1.45-0.956 0.549-1.91 1.1-2.9 1.66-0.541 0.316-1.08 0.632-1.64 0.958-3.67 2.13-7.38 4.19-11.1 6.25-0.756 0.428-1.51 0.855-2.29 1.3-7.08 3.97-13.1 7.08-21.5 6.95-0.706-0.00685-1.41-0.0137-2.14-0.0208-7.2-0.223-10.2-2.09-15.5-6.79-4.47-5.07-7.96-9.99-8.62-16.8 1.05-12.8 7.8-21.7 16.3-30.8 0.583-0.659 1.17-1.32 1.77-2 5.58-6.02 12.1-10.1 19.2-14 0.824-0.459 1.65-0.918 2.5-1.39 5.14-2.46 10.1-3 15.8-3.11z" fill="#FCFDFF"/>
<path transform="translate(802,970)" d="m0 0c0.521 6.94-1.4 13.1-3.25 19.7-0.339 1.24-0.677 2.48-1.03 3.76-0.902 3.3-1.81 6.6-2.73 9.9-0.903 3.26-1.79 6.53-2.69 9.8-4.37 16-8.82 31.9-13.3 47.8-4.32 0.455-8.65 0.9-13 1.34-1.47 0.15-2.94 0.302-4.41 0.457-2.12 0.223-4.23 0.436-6.35 0.648-1.27 0.131-2.55 0.262-3.86 0.397-3.09 0.147-5.46 0.0352-8.41-0.838-5.61-5.99-8.65-15.5-12.1-22.8-2.67-5.68-5.46-11.3-8.45-16.8-3.66-6.79-7.01-13.7-10.3-20.7-2.48-5.31-5.16-10.4-8.19-15.5-1.15-2.57-1.19-4.44-0.996-7.23 6.83-2.42 13.8-2.67 20.9-3.12 1.26-0.0864 2.51-0.173 3.81-0.262 3.08-0.211 6.17-0.415 9.26-0.613 3.25 6.79 6.29 13.6 8.88 20.6 2.32 6.3 4.75 12.5 7.31 18.8 0.333 0.827 0.666 1.65 1.01 2.51 0.32 0.769 0.641 1.54 0.971 2.33 0.422 1.03 0.422 1.03 0.852 2.07 1 2.06 1 2.06 3.98 3.72 0.329-1.73 0.329-1.73 0.664-3.5 0.681-3.59 1.37-7.18 2.05-10.8 0.818-4.27 1.62-8.55 2.42-12.8 0.527-2.83 1.06-5.65 1.59-8.48 0.264-1.4 0.525-2.81 0.783-4.21 0.366-1.99 0.743-3.98 1.12-5.97 0.215-1.15 0.431-2.31 0.653-3.5 0.714-2.74 0.714-2.74 2.71-4.74 2.68-0.45 5.3-0.795 8-1.06 1.15-0.122 1.15-0.122 2.32-0.247 1.53-0.162 3.05-0.32 4.58-0.474 1.78-0.183 3.56-0.389 5.34-0.599 0.869-0.101 1.74-0.201 2.63-0.305 1.11-0.13 1.11-0.13 2.24-0.262 1.88-0.0508 1.88-0.0508 4.88 0.949z" fill="#FCFDFF"/>
<path transform="translate(956,898)" d="m0 0c4.41 4.01 7.36 8.38 10.4 13.5 0.463 0.746 0.926 1.49 1.4 2.26 3.2 5.39 3.2 5.39 3.31 9.07-1.46 2.91-3.06 3.8-5.9 5.36-0.873 0.489-1.75 0.977-2.64 1.48-2.54 1.33-2.54 1.33-4.75 2.22-3.16 1.96-3.49 5.03-4.37 8.48-1.97 12.3 9.88 27 16.2 36.9 0.78 1.23 1.56 2.46 2.33 3.69 0.393 0.623 0.785 1.25 1.19 1.89 2.06 3.41 2.81 5.03 2.81 9.11-2.27 1.71-2.27 1.71-5.38 3.38-1.09 0.598-2.19 1.2-3.31 1.81-1.09 0.598-2.19 1.2-3.31 1.81-1.8 1.12-3.59 2.24-5.38 3.38-3.53 2.14-6.41 3.4-10.6 3.62v-2c-0.99-0.33-1.98-0.66-3-1-1.16-1.54-1.16-1.54-2.28-3.55-0.425-0.75-0.849-1.5-1.29-2.27-0.453-0.821-0.907-1.64-1.37-2.49-0.991-1.75-1.98-3.51-2.98-5.26-0.511-0.904-1.02-1.81-1.55-2.74-2.38-4.17-4.86-8.27-7.35-12.4-4.61-7.66-9.17-15.3-13.7-23.1-0.588-1-1.18-2-1.78-3.03-3.11-5.32-6.04-10.7-8.72-16.2 3.22-3.6 6.87-5.84 11.1-8.12 5.05-2.8 5.05-2.8 9.94-5.88 3.82 0.246 5.48 2.31 8 5 0.66 0.33 1.32 0.66 2 1 0.0412-1.13 0.0825-2.27 0.125-3.44 0.83-6.59 4.87-12 9.75-16.4 3.59-2.51 7.16-4.34 11.1-6.19z" fill="#FBFCFE"/>
<path transform="translate(653,993)" d="m0 0c5.27 1.82 7.84 4.57 11 9 3.23 9.53 1.25 22.5-2.81 31.5-1.92 3.39-3.38 5.2-7.19 6.5-7.88 0.856-14 0.163-20.3-4.81-4.4-5.71-3.85-11.6-3.22-18.4 1.07-7.54 2.18-15.3 8.16-20.5 4.77-3.46 8.55-3.78 14.4-3.25z" fill="#000002"/>
<path transform="translate(869,971)" d="m0 0c2.17 1.89 3.38 3.54 5 6v4c-3.7 1.35-7.41 2.68-11.1 4-1.05 0.382-2.09 0.763-3.17 1.16-1.02 0.361-2.04 0.722-3.09 1.09-0.932 0.335-1.86 0.67-2.82 1.02-3.05 0.803-5.65 0.934-8.79 0.734-1-1-1-1-1.31-3.69 0.481-5.1 2.95-7.95 6.5-11.5 6.17-3.98 11.8-6.16 18.8-2.81z" fill="#000002"/>
</svg>
