<?xml version="1.0" standalone="no"?>
<!DOCTYPE svg PUBLIC "-//W3C//DTD SVG 20010904//EN"
 "http://www.w3.org/TR/2001/REC-SVG-20010904/DTD/svg10.dtd">
<svg version="1.0" xmlns="http://www.w3.org/2000/svg"
 width="1125.000000pt" height="1125.000000pt" viewBox="0 0 1125.000000 1125.000000"
 preserveAspectRatio="xMidYMid meet">

<g transform="translate(0.000000,1125.000000) scale(0.100000,-0.100000)"
fill="#000000" stroke="none">
<path d="M9055 8238 c22 -224 50 -694 60 -1018 3 -102 8 -229 11 -282 l6 -98
-83 44 c-281 149 -615 175 -916 72 -172 -59 -324 -158 -459 -298 -97 -101
-152 -181 -210 -302 -172 -365 -141 -793 85 -1136 44 -68 187 -218 261 -275
150 -115 364 -203 551 -226 363 -45 734 86 974 343 265 283 350 418 391 620
18 85 17 105 -18 1105 -33 911 -39 1024 -56 1079 -78 250 -301 423 -545 424
l-57 0 5 -52z m-350 -1698 c123 -38 202 -87 296 -180 71 -71 94 -101 133 -180
103 -209 103 -421 0 -629 -135 -273 -441 -430 -739 -377 -93 16 -175 43 -175
57 0 14 120 106 177 134 46 24 72 29 162 35 94 5 117 10 174 38 240 118 427
519 306 657 -40 45 -99 61 -177 47 -109 -19 -216 -92 -331 -225 -76 -88 -115
-162 -142 -272 -36 -147 -86 -225 -205 -322 -52 -42 -57 -45 -80 -32 -49 26
-179 173 -217 245 -20 40 -37 80 -37 90 0 23 132 124 163 125 12 1 67 2 122 2
86 2 106 5 143 26 41 24 141 133 249 271 48 61 203 295 203 305 0 3 -6 5 -12
4 -7 0 -33 -28 -58 -62 -131 -180 -351 -412 -350 -370 0 4 32 44 71 88 91 102
289 365 289 383 0 25 -17 8 -94 -96 -122 -164 -294 -347 -311 -330 -2 2 34 46
81 98 93 103 284 351 284 369 0 21 -17 11 -51 -31 -88 -110 -275 -321 -316
-358 -31 -27 -50 -37 -56 -31 -7 7 13 35 59 83 98 104 183 204 236 279 69 98
80 117 70 123 -5 3 -36 -29 -69 -72 -90 -116 -232 -261 -325 -333 -46 -35
-107 -87 -135 -115 -46 -44 -53 -56 -53 -90 0 -36 -6 -45 -77 -111 -42 -40
-80 -73 -84 -73 -13 0 -21 60 -20 158 0 191 61 340 195 480 109 114 212 172
366 207 90 20 244 13 335 -15z"/>
<path d="M5999 7575 c-351 -70 -651 -294 -809 -605 -19 -36 -35 -66 -36 -68
-1 -2 -31 18 -66 45 -110 86 -232 145 -393 190 -121 33 -356 43 -490 19 -241
-42 -431 -141 -611 -320 -219 -218 -329 -464 -341 -766 -10 -267 56 -495 207
-713 170 -247 462 -430 761 -477 117 -19 374 -8 474 19 188 52 353 144 491
274 106 100 174 188 236 304 l43 81 63 -47 c132 -99 305 -174 477 -206 113
-21 363 -16 470 9 336 80 618 304 772 611 346 688 -76 1518 -841 1654 -81 15
-326 12 -407 -4z m407 -461 c127 -36 205 -83 305 -183 73 -73 93 -100 132
-181 57 -120 70 -179 70 -310 0 -109 -17 -196 -52 -273 l-19 -42 -1 102 c-2
170 -51 286 -176 409 -114 113 -241 164 -408 164 -144 0 -258 -39 -362 -123
-142 -115 -224 -285 -225 -463 0 -70 29 -193 60 -253 11 -23 18 -41 15 -41
-11 0 -93 96 -126 149 -96 152 -129 333 -93 509 30 144 87 251 191 356 136
138 295 204 494 205 86 1 124 -4 195 -25z m-1832 -414 c126 -32 228 -91 327
-190 70 -69 94 -102 127 -170 44 -90 66 -174 76 -280 6 -69 6 -69 -37 30 -33
76 -106 171 -168 220 -271 214 -660 156 -853 -127 -71 -104 -98 -194 -98 -323
-1 -177 47 -296 166 -415 39 -39 82 -79 96 -88 l25 -17 -30 6 c-59 13 -171 72
-237 125 -264 213 -340 554 -192 857 71 145 208 276 350 337 133 57 310 71
448 35z"/>
<path d="M2330 6444 c-282 -43 -527 -185 -692 -404 -67 -87 -141 -245 -169
-355 -45 -180 -22 -416 55 -565 54 -106 1008 -1702 1040 -1740 11 -14 79 -123
150 -242 l130 -217 29 17 c49 29 155 149 187 212 43 85 61 162 61 260 1 138
-31 233 -119 362 -28 40 -145 232 -260 426 l-210 352 111 66 c62 37 270 154
462 261 193 107 352 196 354 198 9 10 -67 110 -118 156 -104 93 -240 142 -395
140 -140 -1 -177 -16 -519 -219 l-188 -111 -23 37 c-195 311 -229 409 -191
556 30 113 105 203 215 255 48 22 68 26 155 26 91 0 106 -3 166 -31 49 -24 81
-48 129 -103 47 -52 71 -71 89 -71 24 0 346 182 419 237 40 30 41 59 6 116
-117 186 -341 332 -572 372 -77 14 -239 18 -302 9z"/>
<path d="M7133 5241 c-99 -34 -223 -144 -269 -238 -48 -96 -19 -200 70 -254
66 -40 137 -21 321 86 66 38 87 42 104 21 24 -29 -39 -108 -97 -123 -14 -3
-38 -1 -53 4 -24 10 -32 5 -100 -55 -41 -36 -74 -70 -74 -76 0 -6 15 -21 34
-33 87 -59 245 -10 368 114 69 68 123 165 123 218 -1 46 -32 106 -78 148 -38
33 -48 37 -97 37 -67 0 -93 -10 -215 -84 -97 -58 -126 -67 -137 -40 -16 43 64
110 120 100 29 -5 39 1 107 63 69 63 74 70 60 86 -19 23 -72 45 -107 45 -15
-1 -51 -9 -80 -19z"/>
<path d="M6695 4916 c-64 -28 -115 -100 -115 -161 l0 -27 -26 31 c-14 17 -30
31 -35 31 -12 0 -158 -83 -159 -90 0 -8 297 -511 309 -523 9 -9 185 85 197
104 3 5 -29 67 -71 138 -42 72 -81 146 -86 165 -15 55 8 98 76 141 l56 36 -27
47 c-50 86 -74 122 -82 122 -4 -1 -20 -7 -37 -14z"/>
<path d="M3669 4842 c-5 -15 -71 -184 -145 -375 -75 -192 -134 -351 -131 -353
9 -9 620 -244 624 -240 10 9 72 179 68 186 -2 3 -84 37 -182 75 -98 38 -182
72 -187 76 -5 4 39 131 99 284 59 152 106 278 104 280 -5 4 -146 61 -202 81
-37 13 -38 13 -48 -14z"/>
<path d="M6013 4570 c-91 -24 -144 -51 -200 -103 -68 -63 -87 -107 -88 -202 0
-113 31 -192 104 -265 64 -64 105 -80 203 -80 177 0 377 113 409 233 11 40 4
127 -9 127 -4 0 -53 -15 -107 -33 -99 -33 -100 -34 -103 -68 -2 -19 -11 -42
-20 -53 -39 -43 -128 -59 -170 -30 -20 14 -58 72 -50 79 2 1 100 36 218 77
243 85 229 71 179 175 -36 75 -94 128 -163 148 -65 19 -115 18 -203 -5z m91
-152 c23 -10 63 -56 54 -62 -2 -1 -46 -17 -98 -36 -52 -18 -101 -35 -107 -38
-9 -3 -13 7 -13 31 0 76 95 137 164 105z"/>
<path d="M5514 4418 l-91 -10 -27 -151 c-41 -221 -47 -250 -55 -240 -4 4 -39
85 -76 178 -38 94 -72 174 -76 179 -6 7 -238 -10 -247 -19 -2 -2 284 -582 292
-592 1 -1 55 4 120 10 86 9 121 16 127 27 8 14 169 608 169 623 0 8 -11 8
-136 -5z"/>
<path d="M4396 4400 c-125 -49 -195 -179 -184 -344 11 -170 134 -272 344 -283
118 -7 186 13 253 73 66 60 93 124 99 240 4 82 2 97 -20 145 -58 127 -179 190
-366 189 -51 -1 -93 -7 -126 -20z m233 -155 c42 -21 55 -63 48 -151 -11 -125
-49 -171 -134 -161 -37 4 -54 12 -77 38 -28 31 -29 35 -23 110 7 90 25 139 58
163 29 20 91 21 128 1z"/>
</g>
</svg>
